<svg xmlns="http://www.w3.org/2000/svg" width="16" height="16" viewBox="0 0 16 16" fill="fff"><path d="M5.375 1h5.25A4.375 4.375 0 0 1 15 5.375v5.25A4.375 4.375 0 0 1 10.625 15h-5.25A4.375 4.375 0 0 1 1 10.625v-5.25A4.375 4.375 0 0 1 5.375 1zm5.25 12.688a3.066 3.066 0 0 0 3.063-3.063v-5.25a3.066 3.066 0 0 0-3.063-3.063h-5.25a3.066 3.066 0 0 0-3.063 3.063v5.25a3.066 3.066 0 0 0 3.063 3.063h5.25zM4.5 8a3.5 3.5 0 1 1 7 0 3.5 3.5 0 0 1-7 0zm1.313 0c0 1.206.982 2.188 2.188 2.188S10.189 9.206 10.189 8c0-1.207-.982-2.188-2.188-2.188S5.813 6.793 5.813 8zm5.846-3.182a.477.477 0 1 0 0-.954.477.477 0 0 0 0 .954z"></path></svg>
